<svg xmlns="http://www.w3.org/2000/svg" width="1100" height="740" viewBox="0 0 1100 740" role="img" aria-label="Feedback do projeto"><rect x="0" y="0" width="1100" height="740" rx="9" fill="#f3f6fa" stroke="#d8e1eb"/><rect x="20" y="20" width="1060" height="62" rx="9" fill="#112c44" stroke="#112c44"/><text x="42" y="59" font-family="Arial,sans-serif" font-size="25" fill="#fff">labrary digital</text><text x="585" y="57" font-family="Arial,sans-serif" font-size="16" fill="#fff">Acervo   |   Meu projeto   |   Área docente</text><text x="40" y="126" font-family="Arial,sans-serif" font-size="28" fill="#24334a">Feedback do projeto</text><text x="40" y="157" font-family="Arial,sans-serif" font-size="16" fill="#5c6c80">Conversa privada entre grupo e equipe docente autorizada.</text><rect x="40" y="190" width="240" height="440" rx="9" fill="#fff" stroke="#d8e1eb"/><text x="57" y="230" font-family="Arial,sans-serif" font-size="21" fill="#24334a">Grupo exemplo</text><text x="57" y="271" font-family="Arial,sans-serif" font-size="16" fill="#24334a">Contexto: relatório v1</text><text x="57" y="309" font-family="Arial,sans-serif" font-size="16" fill="#24334a">Estado: Em preparação</text><text x="57" y="359" font-family="Arial,sans-serif" font-size="16" fill="#147d82">Atualizar conversa</text><rect x="305" y="190" width="755" height="440" rx="9" fill="#fff" stroke="#d8e1eb"/><rect x="326" y="222" width="560" height="87" rx="9" fill="#edf3f8" stroke="#d8e1eb"/><text x="343" y="249" font-family="Arial,sans-serif" font-size="14" fill="#24334a">Avaliador • 10:00</text><text x="343" y="282" font-family="Arial,sans-serif" font-size="16" fill="#24334a">Incluam a tabela de testes no relatório.</text><rect x="475" y="340" width="560" height="87" rx="9" fill="#e4f3ef" stroke="#d8e1eb"/><text x="492" y="367" font-family="Arial,sans-serif" font-size="14" fill="#24334a">Integrante • 10:15</text><text x="492" y="400" font-family="Arial,sans-serif" font-size="16" fill="#24334a">Vamos atualizar o relatório e reenviar.</text><rect x="326" y="472" width="709" height="61" rx="9" fill="#fff" stroke="#d8e1eb"/><text x="344" y="507" font-family="Arial,sans-serif" font-size="16" fill="#24334a">Escreva sua mensagem...</text><rect x="855" y="553" width="180" height="40" rx="9" fill="#147d82" stroke="#147d82"/><text x="869" y="579" font-family="Arial,sans-serif" font-size="15" fill="#fff">Enviar</text><text x="326" y="603" font-family="Arial,sans-serif" font-size="14" fill="#b53a36">Mensagem não enviada? Tentar novamente.</text><text x="40" y="712" font-family="Arial,sans-serif" font-size="13" fill="#5c6c80">Protótipo estático • dados fictícios • proposta para validação do grupo</text></svg>